# xmcd
#
# Track frame offsets:
#	182
#	18277
#	28440
#	47300
#	73042
#	97670
#	114712
#	130655
#	145582
#	170885
#	182335
#	195970
#	210352
#	229962
#	240662
#	256672
#
# Disc length: 3576 seconds
#
# Revision: 0
# Processed by: cddbd v1.5.2PL0 Copyright (c) Steve Scherf et al.
# Submitted via: dBpowerAMP V4.0
#
DISCID=cb0df610
DTITLE=Sonny Rhodes - Won't Rain In California
DYEAR=1980
DGENRE=Blues
TTITLE0=I Know How To Party Too
TTITLE1=I'll Do It All Over Again
TTITLE2=Bettye
TTITLE3=Won't Rain In California
TTITLE4=I Just Can't Say
TTITLE5=What I Don't See Can't Hurt Me
TTITLE6=The Girls On Saint-Denis
TTITLE7=Forever And a Day
TTITLE8=Trying To Mak A Comeback For Myself
TTITLE9=Do You Like The Blues
TTITLE10=Hen-Pecked Man
TTITLE11=Dreaded Week-End
TTITLE12=Are We Losing Our Thing
TTITLE13=Reaggae Blues
TTITLE14=Disco Blues ( Let'em Know The Blues Still Around )
TTITLE15=I'm Not Blue Anymore
EXTD=
EXTT0=
EXTT1=
EXTT2=
EXTT3=
EXTT4=
EXTT5=
EXTT6=
EXTT7=
EXTT8=
EXTT9=
EXTT10=
EXTT11=
EXTT12=
EXTT13=
EXTT14=
EXTT15=
PLAYORDER=
